{
    "asset": {
        "version": "2.0",
        "generator": "Open Asset Import Library (assimp v5.4.0)"
    },
    "extensionsUsed": [
        "KHR_materials_volume",
        "FB_ngon_encoding"
    ],
    "accessors": [
        {
            "bufferView": 0,
            "byteOffset": 0,
            "componentType": 5126,
            "count": 276550,
            "type": "VEC3",
            "max": [
                0.4625297784805298,
                0.3109014332294464,
                0.4999666213989258
            ],
            "min": [
                -0.4625341594219208,
                -0.3108738660812378,
                -0.4999886751174927
            ]
        },
        {
            "bufferView": 1,
            "byteOffset": 0,
            "componentType": 5126,
            "count": 276550,
            "type": "VEC3",
            "max": [
                1.0,
                1.0,
                1.0
            ],
            "min": [
                -1.0,
                -1.0,
                -1.0
            ]
        },
        {
            "bufferView": 2,
            "byteOffset": 0,
            "componentType": 5126,
            "count": 276550,
            "type": "VEC2",
            "max": [
                0.999599039554596,
                0.9999875426292419
            ],
            "min": [
                0.00020916317589581013,
                0.000012755393981933594
            ]
        },
        {
            "bufferView": 3,
            "byteOffset": 0,
            "componentType": 5125,
            "count": 1499754,
            "type": "SCALAR",
            "max": [
                276549
            ],
            "min": [
                0
            ]
        }
    ],
    "buffers": [
        {
            "byteLength": 14848616,
            "uri": "tripo_pbr_model_dcaf7674-2334-4328-b0d6-c6387b9d3ce3_0.bin"
        }
    ],
    "bufferViews": [
        {
            "buffer": 0,
            "byteOffset": 0,
            "byteLength": 3318600,
            "target": 34962
        },
        {
            "buffer": 0,
            "byteOffset": 3318600,
            "byteLength": 3318600,
            "target": 34962
        },
        {
            "buffer": 0,
            "byteOffset": 6637200,
            "byteLength": 2212400,
            "target": 34962
        },
        {
            "buffer": 0,
            "byteOffset": 8849600,
            "byteLength": 5999016,
            "target": 34963
        }
    ],
    "images": [
        {
            "uri": "textures/image_1.png"
        },
        {
            "uri": "textures/image_0.png"
        },
        {
            "uri": "textures/image_2.png"
        }
    ],
    "materials": [
        {
            "name": "tripo_material_dcaf7674-2334-4328-b0d6-c6387b9d3ce3",
            "pbrMetallicRoughness": {
                "baseColorTexture": {
                    "index": 0
                },
                "metallicRoughnessTexture": {
                    "index": 1
                },
                "metallicFactor": 0.800000011920929
            },
            "normalTexture": {
                "index": 2
            }
        }
    ],
    "meshes": [
        {
            "name": "meshes[0]",
            "primitives": [
                {
                    "mode": 4,
                    "material": 0,
                    "indices": 3,
                    "attributes": {
                        "POSITION": 0,
                        "NORMAL": 1,
                        "TEXCOORD_0": 2
                    }
                }
            ]
        }
    ],
    "nodes": [
        {
            "name": "tripo_pbr_model_dcaf7674-2334-4328-b0d6-c6387b9d3ce3",
            "children": [
                1
            ]
        },
        {
            "name": "tripo_node_dcaf7674-2334-4328-b0d6-c6387b9d3ce3",
            "mesh": 0,
            "extras": {
                "name": "tripo_node_dcaf7674-2334-4328-b0d6-c6387b9d3ce3"
            }
        }
    ],
    "samplers": [
        {
            "magFilter": 9729,
            "minFilter": 9987
        },
        {
            "magFilter": 9729,
            "minFilter": 9987
        },
        {
            "magFilter": 9729,
            "minFilter": 9987
        }
    ],
    "scenes": [
        {
            "nodes": [
                0
            ]
        }
    ],
    "textures": [
        {
            "source": 0,
            "sampler": 0
        },
        {
            "source": 1,
            "sampler": 1
        },
        {
            "source": 2,
            "sampler": 2
        }
    ],
    "scene": 0
}