{
    "asset": {
        "version": "2.0",
        "generator": "Open Asset Import Library (assimp v5.4.0)"
    },
    "extensionsUsed": [
        "KHR_materials_volume",
        "FB_ngon_encoding"
    ],
    "accessors": [
        {
            "bufferView": 0,
            "byteOffset": 0,
            "componentType": 5126,
            "count": 263656,
            "type": "VEC3",
            "max": [
                0.33305665850639343,
                0.49999770522117615,
                0.31265968084335327
            ],
            "min": [
                -0.3330565392971039,
                -0.4999960958957672,
                -0.31267979741096497
            ]
        },
        {
            "bufferView": 1,
            "byteOffset": 0,
            "componentType": 5126,
            "count": 263656,
            "type": "VEC3",
            "max": [
                1.0,
                1.0,
                1.0
            ],
            "min": [
                -1.0,
                -1.0,
                -1.0
            ]
        },
        {
            "bufferView": 2,
            "byteOffset": 0,
            "componentType": 5126,
            "count": 263656,
            "type": "VEC2",
            "max": [
                0.9995822906494141,
                0.9999980926513672
            ],
            "min": [
                0.000018826161976903677,
                0.002060413360595703
            ]
        },
        {
            "bufferView": 3,
            "byteOffset": 0,
            "componentType": 5125,
            "count": 1499994,
            "type": "SCALAR",
            "max": [
                263655
            ],
            "min": [
                0
            ]
        }
    ],
    "buffers": [
        {
            "byteLength": 14436968,
            "uri": "tripo_pbr_model_dd04b69a-f948-4407-b319-fa074ff2181b_0.bin"
        }
    ],
    "bufferViews": [
        {
            "buffer": 0,
            "byteOffset": 0,
            "byteLength": 3163872,
            "target": 34962
        },
        {
            "buffer": 0,
            "byteOffset": 3163872,
            "byteLength": 3163872,
            "target": 34962
        },
        {
            "buffer": 0,
            "byteOffset": 6327744,
            "byteLength": 2109248,
            "target": 34962
        },
        {
            "buffer": 0,
            "byteOffset": 8436992,
            "byteLength": 5999976,
            "target": 34963
        }
    ],
    "images": [
        {
            "uri": "textures/image_1.png"
        },
        {
            "uri": "textures/image_0.png"
        },
        {
            "uri": "textures/image_2.png"
        }
    ],
    "materials": [
        {
            "name": "tripo_material_dd04b69a-f948-4407-b319-fa074ff2181b",
            "pbrMetallicRoughness": {
                "baseColorTexture": {
                    "index": 0
                },
                "metallicRoughnessTexture": {
                    "index": 1
                },
                "metallicFactor": 0.800000011920929
            },
            "normalTexture": {
                "index": 2
            }
        }
    ],
    "meshes": [
        {
            "name": "meshes[0]",
            "primitives": [
                {
                    "mode": 4,
                    "material": 0,
                    "indices": 3,
                    "attributes": {
                        "POSITION": 0,
                        "NORMAL": 1,
                        "TEXCOORD_0": 2
                    }
                }
            ]
        }
    ],
    "nodes": [
        {
            "name": "tripo_pbr_model_dd04b69a-f948-4407-b319-fa074ff2181b",
            "children": [
                1
            ]
        },
        {
            "name": "tripo_node_dd04b69a-f948-4407-b319-fa074ff2181b",
            "mesh": 0,
            "extras": {
                "name": "tripo_node_dd04b69a-f948-4407-b319-fa074ff2181b"
            }
        }
    ],
    "samplers": [
        {
            "magFilter": 9729,
            "minFilter": 9987
        },
        {
            "magFilter": 9729,
            "minFilter": 9987
        },
        {
            "magFilter": 9729,
            "minFilter": 9987
        }
    ],
    "scenes": [
        {
            "nodes": [
                0
            ]
        }
    ],
    "textures": [
        {
            "source": 0,
            "sampler": 0
        },
        {
            "source": 1,
            "sampler": 1
        },
        {
            "source": 2,
            "sampler": 2
        }
    ],
    "scene": 0
}