{"scene":0,"asset":{"generator":"ImageToStl.com","version":"2.0"},"scenes":[{"name":"Scene","nodes":[0]}],"nodes":[{"name":"Node0","children":[1,2,3,4,5,6,7,8,9,10,11]},{"name":"Node1","mesh":0},{"name":"Node2","mesh":1},{"name":"Node3","mesh":2},{"name":"Node4","mesh":3},{"name":"Node5","mesh":4},{"name":"Node6","mesh":5},{"name":"Node7","mesh":6},{"name":"Node8","mesh":7},{"name":"Node9","mesh":8},{"name":"Node10","mesh":9},{"name":"Node11","mesh":10}],"materials":[{"name":"x1","pbrMetallicRoughness":{"baseColorFactor":[0.85,0.85,0.85,1.0],"metallicFactor":0.05,"roughnessFactor":0.5},"doubleSided":true}],"meshes":[{"name":"Mesh0","primitives":[{"indices":3,"material":0,"attributes":{"POSITION":0,"NORMAL":1,"TEXCOORD_0":2}}]},{"name":"Mesh0","primitives":[{"indices":7,"material":0,"attributes":{"POSITION":4,"NORMAL":5,"TEXCOORD_0":6}}]},{"name":"Mesh0","primitives":[{"indices":11,"material":0,"attributes":{"POSITION":8,"NORMAL":9,"TEXCOORD_0":10}}]},{"name":"Mesh0","primitives":[{"indices":15,"material":0,"attributes":{"POSITION":12,"NORMAL":13,"TEXCOORD_0":14}}]},{"name":"Mesh0","primitives":[{"indices":19,"material":0,"attributes":{"POSITION":16,"NORMAL":17,"TEXCOORD_0":18}}]},{"name":"Mesh0","primitives":[{"indices":23,"material":0,"attributes":{"POSITION":20,"NORMAL":21,"TEXCOORD_0":22}}]},{"name":"Mesh0","primitives":[{"indices":27,"material":0,"attributes":{"POSITION":24,"NORMAL":25,"TEXCOORD_0":26}}]},{"name":"Mesh0","primitives":[{"indices":31,"material":0,"attributes":{"POSITION":28,"NORMAL":29,"TEXCOORD_0":30}}]},{"name":"Mesh0","primitives":[{"indices":35,"material":0,"attributes":{"POSITION":32,"NORMAL":33,"TEXCOORD_0":34}}]},{"name":"Mesh0","primitives":[{"indices":39,"material":0,"attributes":{"POSITION":36,"NORMAL":37,"TEXCOORD_0":38}}]},{"name":"Mesh0","primitives":[{"indices":43,"material":0,"attributes":{"POSITION":40,"NORMAL":41,"TEXCOORD_0":42}}]}],"accessors":[{"bufferView":0,"componentType":5126,"count":3144,"type":"VEC3","min":[-288.0484,47.99996,-215.03769],"max":[298.9763,251.99995,286.03772]},{"bufferView":1,"componentType":5126,"count":3144,"type":"VEC3"},{"bufferView":2,"componentType":5126,"count":3144,"type":"VEC2"},{"bufferView":3,"componentType":5123,"count":17604,"type":"SCALAR"},{"bufferView":4,"componentType":5126,"count":2857,"type":"VEC3","min":[-332.0239,-5.2E-05,-275.03766],"max":[304.9762,318.00003,321.08145]},{"bufferView":5,"componentType":5126,"count":2857,"type":"VEC3"},{"bufferView":6,"componentType":5126,"count":2857,"type":"VEC2"},{"bufferView":7,"componentType":5123,"count":15984,"type":"SCALAR"},{"bufferView":8,"componentType":5126,"count":781,"type":"VEC3","min":[-319.0238,-2.5E-05,58.6204],"max":[-217.0238,168.99998,280.0377]},{"bufferView":9,"componentType":5126,"count":781,"type":"VEC3"},{"bufferView":10,"componentType":5126,"count":781,"type":"VEC2"},{"bufferView":11,"componentType":5123,"count":4194,"type":"SCALAR"},{"bufferView":12,"componentType":5126,"count":382,"type":"VEC3","min":[-331.0239,-4.7E-05,-467.0377],"max":[298.9762,98.00008,287.03772]},{"bufferView":13,"componentType":5126,"count":382,"type":"VEC3"},{"bufferView":14,"componentType":5126,"count":382,"type":"VEC2"},{"bufferView":15,"componentType":5123,"count":1728,"type":"SCALAR"},{"bufferView":16,"componentType":5126,"count":865,"type":"VEC3","min":[-205.0238,119.999855,-275.03778],"max":[193.9286,234.00008,287.03772]},{"bufferView":17,"componentType":5126,"count":865,"type":"VEC3"},{"bufferView":18,"componentType":5126,"count":865,"type":"VEC2"},{"bufferView":19,"componentType":5123,"count":4140,"type":"SCALAR"},{"bufferView":20,"componentType":5126,"count":3772,"type":"VEC3","min":[-259.0238,5.999953,-215.0377],"max":[202.9762,222.00003,287.0377]},{"bufferView":21,"componentType":5126,"count":3772,"type":"VEC3"},{"bufferView":22,"componentType":5126,"count":3772,"type":"VEC2"},{"bufferView":23,"componentType":5123,"count":21096,"type":"SCALAR"},{"bufferView":24,"componentType":5126,"count":1138,"type":"VEC3","min":[-319.0327,233.99995,-308.09357],"max":[332.0239,271.00006,320.08533]},{"bufferView":25,"componentType":5126,"count":1138,"type":"VEC3"},{"bufferView":26,"componentType":5126,"count":1138,"type":"VEC2"},{"bufferView":27,"componentType":5123,"count":5364,"type":"SCALAR"},{"bufferView":28,"componentType":5126,"count":613,"type":"VEC3","min":[-319.0238,-5.7E-05,-292.0082],"max":[298.9763,138.00003,347.0377]},{"bufferView":29,"componentType":5126,"count":613,"type":"VEC3"},{"bufferView":30,"componentType":5126,"count":613,"type":"VEC2"},{"bufferView":31,"componentType":5123,"count":3924,"type":"SCALAR"},{"bufferView":32,"componentType":5126,"count":76,"type":"VEC3","min":[-332.0238,-7.6E-05,-455.0377],"max":[298.9763,5.999953,467.0377]},{"bufferView":33,"componentType":5126,"count":76,"type":"VEC3"},{"bufferView":34,"componentType":5126,"count":76,"type":"VEC2"},{"bufferView":35,"componentType":5123,"count":486,"type":"SCALAR"},{"bufferView":36,"componentType":5126,"count":563,"type":"VEC3","min":[-319.0239,17.999964,-209.0377],"max":[202.9763,258.0001,221.03772]},{"bufferView":37,"componentType":5126,"count":563,"type":"VEC3"},{"bufferView":38,"componentType":5126,"count":563,"type":"VEC2"},{"bufferView":39,"componentType":5123,"count":2592,"type":"SCALAR"},{"bufferView":40,"componentType":5126,"count":3076,"type":"VEC3","min":[-325.6347,3.999953,-462.1978],"max":[294.0041,98.00008,287.03772]},{"bufferView":41,"componentType":5126,"count":3076,"type":"VEC3"},{"bufferView":42,"componentType":5126,"count":3076,"type":"VEC2"},{"bufferView":43,"componentType":5123,"count":14256,"type":"SCALAR"}],"bufferViews":[{"target":34962,"buffer":0,"byteLength":37728,"byteOffset":0},{"target":34962,"buffer":0,"byteLength":37728,"byteOffset":37728},{"target":34962,"buffer":0,"byteLength":25152,"byteOffset":75456},{"target":34963,"buffer":0,"byteLength":35208,"byteOffset":100608},{"target":34962,"buffer":0,"byteLength":34284,"byteOffset":135816},{"target":34962,"buffer":0,"byteLength":34284,"byteOffset":170100},{"target":34962,"buffer":0,"byteLength":22856,"byteOffset":204384},{"target":34963,"buffer":0,"byteLength":31968,"byteOffset":227240},{"target":34962,"buffer":0,"byteLength":9372,"byteOffset":259208},{"target":34962,"buffer":0,"byteLength":9372,"byteOffset":268580},{"target":34962,"buffer":0,"byteLength":6248,"byteOffset":277952},{"target":34963,"buffer":0,"byteLength":8388,"byteOffset":284200},{"target":34962,"buffer":0,"byteLength":4584,"byteOffset":292588},{"target":34962,"buffer":0,"byteLength":4584,"byteOffset":297172},{"target":34962,"buffer":0,"byteLength":3056,"byteOffset":301756},{"target":34963,"buffer":0,"byteLength":3456,"byteOffset":304812},{"target":34962,"buffer":0,"byteLength":10380,"byteOffset":308268},{"target":34962,"buffer":0,"byteLength":10380,"byteOffset":318648},{"target":34962,"buffer":0,"byteLength":6920,"byteOffset":329028},{"target":34963,"buffer":0,"byteLength":8280,"byteOffset":335948},{"target":34962,"buffer":0,"byteLength":45264,"byteOffset":344228},{"target":34962,"buffer":0,"byteLength":45264,"byteOffset":389492},{"target":34962,"buffer":0,"byteLength":30176,"byteOffset":434756},{"target":34963,"buffer":0,"byteLength":42192,"byteOffset":464932},{"target":34962,"buffer":0,"byteLength":13656,"byteOffset":507124},{"target":34962,"buffer":0,"byteLength":13656,"byteOffset":520780},{"target":34962,"buffer":0,"byteLength":9104,"byteOffset":534436},{"target":34963,"buffer":0,"byteLength":10728,"byteOffset":543540},{"target":34962,"buffer":0,"byteLength":7356,"byteOffset":554268},{"target":34962,"buffer":0,"byteLength":7356,"byteOffset":561624},{"target":34962,"buffer":0,"byteLength":4904,"byteOffset":568980},{"target":34963,"buffer":0,"byteLength":7848,"byteOffset":573884},{"target":34962,"buffer":0,"byteLength":912,"byteOffset":581732},{"target":34962,"buffer":0,"byteLength":912,"byteOffset":582644},{"target":34962,"buffer":0,"byteLength":608,"byteOffset":583556},{"target":34963,"buffer":0,"byteLength":972,"byteOffset":584164},{"target":34962,"buffer":0,"byteLength":6756,"byteOffset":585136},{"target":34962,"buffer":0,"byteLength":6756,"byteOffset":591892},{"target":34962,"buffer":0,"byteLength":4504,"byteOffset":598648},{"target":34963,"buffer":0,"byteLength":5184,"byteOffset":603152},{"target":34962,"buffer":0,"byteLength":36912,"byteOffset":608336},{"target":34962,"buffer":0,"byteLength":36912,"byteOffset":645248},{"target":34962,"buffer":0,"byteLength":24608,"byteOffset":682160},{"target":34963,"buffer":0,"byteLength":28512,"byteOffset":706768}],"buffers":[{"byteLength":735280,"uri":"data:application/octet-stream;base64,"}]}